<svg width="334.931" height="68.891" viewBox="0 0 334.931 68.891" xmlns="http://www.w3.org/2000/svg"><g id="svgGroup" stroke-linecap="round" fill-rule="evenodd" font-size="9pt" stroke="#454545" stroke-width="0.25mm" fill="#8C1E4D" style="stroke: #454545; stroke-width: .25mm; fill: #8c1e4d"><path d="M 179.444 67.501 L 167.361 67.501 L 175.417 35.417 L 167.639 35.417 L 170 25.834 L 177.986 25.834 L 180.972 13.959 A 25.411 25.411 0 0 1 182.568 9.393 Q 184.34 5.61 187.222 3.404 Q 191.667 0.001 197.292 0.001 A 18.776 18.776 0 0 1 200.075 0.219 A 25.043 25.043 0 0 1 202.569 0.73 A 11.687 11.687 0 0 1 205.56 1.933 A 10.086 10.086 0 0 1 207.361 3.265 L 202.639 12.64 Q 201.806 11.042 200.66 10.209 A 4.239 4.239 0 0 0 199.02 9.498 A 6.008 6.008 0 0 0 197.778 9.376 A 4.254 4.254 0 0 0 195.932 9.813 Q 195.36 10.085 194.793 10.528 A 7.595 7.595 0 0 0 194.757 10.556 A 4.492 4.492 0 0 0 193.811 11.619 Q 193.099 12.697 192.595 14.454 A 18.735 18.735 0 0 0 192.431 15.07 L 189.722 25.834 L 197.917 25.834 L 195.556 35.417 L 187.5 35.417 L 179.444 67.501 Z M 12.083 67.501 L 0 67.501 L 15.625 5.001 L 33.125 5.001 Q 38.75 5.001 43.264 7.501 Q 47.778 10.001 50.382 14.237 A 17.694 17.694 0 0 1 52.963 22.827 A 21.343 21.343 0 0 1 52.986 23.82 A 20.755 20.755 0 0 1 51.007 32.709 A 24.951 24.951 0 0 1 45.521 40.279 Q 42.014 43.612 37.535 45.522 A 23.917 23.917 0 0 1 28.056 47.431 L 17.083 47.431 L 12.083 67.501 Z M 148.194 67.501 L 136.111 67.501 L 144.167 35.417 L 136.389 35.417 L 138.75 25.834 L 146.736 25.834 L 150.208 11.945 L 161.875 11.945 L 158.472 25.834 L 166.667 25.834 L 164.306 35.417 L 156.25 35.417 L 148.194 67.501 Z M 255.972 67.501 L 243.889 67.501 L 260.556 0.834 L 272.639 0.834 L 255.972 67.501 Z M 111.389 67.501 L 99.306 67.501 L 109.722 25.834 L 120.556 25.834 L 118.958 32.292 A 22.85 22.85 0 0 1 123.488 28.448 A 20.357 20.357 0 0 1 125.764 27.188 A 18.471 18.471 0 0 1 133.75 25.417 L 133.75 36.112 Q 132.578 35.721 131.04 35.697 A 13.025 13.025 0 0 0 130.833 35.695 A 13.455 13.455 0 0 0 121.862 39.093 A 17.018 17.018 0 0 0 121.736 39.202 Q 118.395 42.111 116.583 47.577 A 32.639 32.639 0 0 0 115.903 49.931 L 111.389 67.501 Z M 62.396 66.355 A 20.128 20.128 0 0 0 72.361 68.89 A 22.93 22.93 0 0 0 81.806 66.876 Q 86.319 64.862 89.826 61.355 A 27.223 27.223 0 0 0 95.382 53.369 A 22.21 22.21 0 0 0 97.431 44.029 A 22.715 22.715 0 0 0 97.42 43.347 A 19.126 19.126 0 0 0 94.826 34.098 A 19.334 19.334 0 0 0 87.743 27.049 A 18.616 18.616 0 0 0 83.747 25.316 A 21.293 21.293 0 0 0 77.569 24.445 A 23.092 23.092 0 0 0 68.056 26.459 A 27.318 27.318 0 0 0 60 31.945 A 26.079 26.079 0 0 0 54.444 39.862 A 22.297 22.297 0 0 0 52.431 49.167 A 23.009 23.009 0 0 0 52.476 50.615 A 18.897 18.897 0 0 0 55.139 59.341 A 19.359 19.359 0 0 0 62.396 66.355 Z M 206.84 66.355 A 20.128 20.128 0 0 0 216.806 68.89 A 22.93 22.93 0 0 0 226.25 66.876 Q 230.764 64.862 234.271 61.355 A 27.223 27.223 0 0 0 239.826 53.369 A 22.21 22.21 0 0 0 241.875 44.029 A 22.715 22.715 0 0 0 241.865 43.347 A 19.126 19.126 0 0 0 239.271 34.098 A 19.334 19.334 0 0 0 232.187 27.049 A 18.616 18.616 0 0 0 228.192 25.316 A 21.293 21.293 0 0 0 222.014 24.445 A 23.092 23.092 0 0 0 212.5 26.459 A 27.318 27.318 0 0 0 204.444 31.945 A 26.079 26.079 0 0 0 198.889 39.862 A 22.297 22.297 0 0 0 196.875 49.167 A 23.009 23.009 0 0 0 196.92 50.615 A 18.897 18.897 0 0 0 199.583 59.341 A 19.359 19.359 0 0 0 206.84 66.355 Z M 299.896 66.355 A 20.128 20.128 0 0 0 309.861 68.89 A 22.93 22.93 0 0 0 319.306 66.876 Q 323.819 64.862 327.326 61.355 A 27.223 27.223 0 0 0 332.882 53.369 A 22.21 22.21 0 0 0 334.931 44.029 A 22.715 22.715 0 0 0 334.92 43.347 A 19.126 19.126 0 0 0 332.326 34.098 A 19.334 19.334 0 0 0 325.243 27.049 A 18.616 18.616 0 0 0 321.247 25.316 A 21.293 21.293 0 0 0 315.069 24.445 A 23.092 23.092 0 0 0 305.556 26.459 A 27.318 27.318 0 0 0 297.5 31.945 A 26.079 26.079 0 0 0 291.944 39.862 A 22.297 22.297 0 0 0 289.931 49.167 A 23.009 23.009 0 0 0 289.976 50.615 A 18.897 18.897 0 0 0 292.639 59.341 A 19.359 19.359 0 0 0 299.896 66.355 Z M 277.5 67.501 L 265.417 67.501 L 275.833 25.834 L 287.917 25.834 L 277.5 67.501 Z M 73.611 58.056 A 11.1 11.1 0 0 0 79.792 56.251 A 13.799 13.799 0 0 0 84.271 51.494 Q 85.972 48.542 85.972 45.279 A 10.032 10.032 0 0 0 83.264 38.195 A 8.996 8.996 0 0 0 76.913 35.296 A 12.182 12.182 0 0 0 76.25 35.279 A 11.152 11.152 0 0 0 70.104 37.084 A 13.779 13.779 0 0 0 65.59 41.806 A 12.199 12.199 0 0 0 63.889 48.056 A 10.801 10.801 0 0 0 64.532 51.842 A 9.687 9.687 0 0 0 66.632 55.174 A 9.142 9.142 0 0 0 73.217 58.05 A 12.152 12.152 0 0 0 73.611 58.056 Z M 218.056 58.056 A 11.1 11.1 0 0 0 224.236 56.251 A 13.799 13.799 0 0 0 228.715 51.494 Q 230.417 48.542 230.417 45.279 A 10.032 10.032 0 0 0 227.708 38.195 A 8.996 8.996 0 0 0 221.357 35.296 A 12.182 12.182 0 0 0 220.694 35.279 A 11.152 11.152 0 0 0 214.549 37.084 A 13.779 13.779 0 0 0 210.035 41.806 A 12.199 12.199 0 0 0 208.333 48.056 A 10.801 10.801 0 0 0 208.977 51.842 A 9.687 9.687 0 0 0 211.076 55.174 A 9.142 9.142 0 0 0 217.662 58.05 A 12.152 12.152 0 0 0 218.056 58.056 Z M 311.111 58.056 A 11.1 11.1 0 0 0 317.292 56.251 A 13.799 13.799 0 0 0 321.771 51.494 Q 323.472 48.542 323.472 45.279 A 10.032 10.032 0 0 0 320.764 38.195 A 8.996 8.996 0 0 0 314.413 35.296 A 12.182 12.182 0 0 0 313.75 35.279 A 11.152 11.152 0 0 0 307.604 37.084 A 13.779 13.779 0 0 0 303.09 41.806 A 12.199 12.199 0 0 0 301.389 48.056 A 10.801 10.801 0 0 0 302.032 51.842 A 9.687 9.687 0 0 0 304.132 55.174 A 9.142 9.142 0 0 0 310.717 58.05 A 12.152 12.152 0 0 0 311.111 58.056 Z M 25 15.834 L 19.792 36.598 L 27.708 36.598 A 13.712 13.712 0 0 0 31.839 35.992 A 12.199 12.199 0 0 0 34.201 34.966 A 12.702 12.702 0 0 0 38.785 30.626 A 10.768 10.768 0 0 0 40.486 24.792 A 8.892 8.892 0 0 0 39.834 21.343 A 8.346 8.346 0 0 0 37.708 18.369 A 9.353 9.353 0 0 0 33.539 16.206 Q 32.016 15.834 30.208 15.834 L 25 15.834 Z M 284.236 19.792 Q 281.875 19.792 280.208 18.195 A 5.34 5.34 0 0 1 278.553 14.502 A 7.181 7.181 0 0 1 278.542 14.098 A 6.797 6.797 0 0 1 280.338 9.479 A 9.063 9.063 0 0 1 280.729 9.063 A 7.782 7.782 0 0 1 282.808 7.549 A 6.638 6.638 0 0 1 285.764 6.876 A 5.959 5.959 0 0 1 287.931 7.259 A 5.436 5.436 0 0 1 289.826 8.508 A 5.499 5.499 0 0 1 291.458 12.485 A 7.176 7.176 0 0 1 291.458 12.57 A 6.797 6.797 0 0 1 289.662 17.189 A 9.063 9.063 0 0 1 289.271 17.605 A 7.782 7.782 0 0 1 287.192 19.119 A 6.638 6.638 0 0 1 284.236 19.792 Z" vector-effect="non-scaling-stroke"></path></g></svg>