<svg xmlns="http://www.w3.org/2000/svg" width="334.931" height="68.891"><path id="svgGroup" fill="#8C1E4D" fill-rule="evenodd" stroke="#454545" stroke-linecap="round" stroke-width=".945" d="M179.444 67.501h-12.083l8.056-32.084h-7.778L170 25.834h7.986l2.986-11.875a25.4 25.4 0 0 1 1.596-4.566q1.772-3.783 4.654-5.989 4.445-3.403 10.07-3.403a19 19 0 0 1 2.783.218 25 25 0 0 1 2.494.511 11.7 11.7 0 0 1 2.991 1.203 10 10 0 0 1 1.801 1.332l-4.722 9.375q-.833-1.598-1.979-2.431a4.2 4.2 0 0 0-1.64-.711 6 6 0 0 0-1.242-.122 4.25 4.25 0 0 0-1.846.437q-.572.272-1.139.715l-.036.028a4.5 4.5 0 0 0-.946 1.063q-.712 1.078-1.216 2.835a19 19 0 0 0-.164.616l-2.709 10.764h8.195l-2.361 9.583H187.5zm-167.361 0H0l15.625-62.5h17.5q5.625 0 10.139 2.5t7.118 6.736a17.7 17.7 0 0 1 2.581 8.59 21 21 0 0 1 .023.993 20.76 20.76 0 0 1-1.979 8.889 25 25 0 0 1-5.486 7.57q-3.507 3.333-7.986 5.243a23.9 23.9 0 0 1-9.479 1.909H17.083zm136.111 0h-12.083l8.056-32.084h-7.778l2.361-9.583h7.986l3.472-13.889h11.667l-3.403 13.889h8.195l-2.361 9.583h-8.056zm107.778 0h-12.083L260.556.834h12.083zm-144.583 0H99.306l10.416-41.667h10.834l-1.598 6.458a22.9 22.9 0 0 1 4.53-3.844 20 20 0 0 1 2.276-1.26 18.5 18.5 0 0 1 7.986-1.771v10.695q-1.172-.391-2.71-.415l-.207-.002a13.46 13.46 0 0 0-8.971 3.398l-.126.109q-3.341 2.909-5.153 8.375a33 33 0 0 0-.68 2.354zm-48.993-1.146a20.1 20.1 0 0 0 9.965 2.535 22.9 22.9 0 0 0 9.445-2.014q4.513-2.014 8.02-5.521a27.2 27.2 0 0 0 5.556-7.986 22.2 22.2 0 0 0 2.049-9.34 23 23 0 0 0-.011-.682 19.1 19.1 0 0 0-2.594-9.249 19.33 19.33 0 0 0-7.083-7.049 18.6 18.6 0 0 0-3.996-1.733 21.3 21.3 0 0 0-6.178-.871 23.1 23.1 0 0 0-9.513 2.014A27.3 27.3 0 0 0 60 31.945a26.1 26.1 0 0 0-5.556 7.917 22.3 22.3 0 0 0-2.013 9.305 23 23 0 0 0 .045 1.448 18.9 18.9 0 0 0 2.663 8.726 19.36 19.36 0 0 0 7.257 7.014Zm144.444 0a20.1 20.1 0 0 0 9.966 2.535 22.9 22.9 0 0 0 9.444-2.014q4.514-2.014 8.021-5.521a27.2 27.2 0 0 0 5.555-7.986 22.2 22.2 0 0 0 2.049-9.34 23 23 0 0 0-.01-.682 19.1 19.1 0 0 0-2.594-9.249 19.33 19.33 0 0 0-7.084-7.049 18.6 18.6 0 0 0-3.995-1.733 21.3 21.3 0 0 0-6.178-.871 23.1 23.1 0 0 0-9.514 2.014 27.3 27.3 0 0 0-8.056 5.486 26.1 26.1 0 0 0-5.555 7.917 22.3 22.3 0 0 0-2.014 9.305 23 23 0 0 0 .045 1.448 18.9 18.9 0 0 0 2.663 8.726 19.36 19.36 0 0 0 7.257 7.014Zm93.056 0a20.1 20.1 0 0 0 9.965 2.535 22.9 22.9 0 0 0 9.445-2.014q4.513-2.014 8.02-5.521a27.2 27.2 0 0 0 5.556-7.986 22.2 22.2 0 0 0 2.049-9.34 23 23 0 0 0-.011-.682 19.1 19.1 0 0 0-2.594-9.249 19.33 19.33 0 0 0-7.083-7.049 18.6 18.6 0 0 0-3.996-1.733 21.3 21.3 0 0 0-6.178-.871 23.1 23.1 0 0 0-9.513 2.014 27.3 27.3 0 0 0-8.056 5.486 26.1 26.1 0 0 0-5.556 7.917 22.3 22.3 0 0 0-2.013 9.305 23 23 0 0 0 .045 1.448 18.9 18.9 0 0 0 2.663 8.726 19.36 19.36 0 0 0 7.257 7.014ZM277.5 67.501h-12.083l10.416-41.667h12.084zM73.611 58.056a11.1 11.1 0 0 0 6.181-1.805 13.8 13.8 0 0 0 4.479-4.757q1.701-2.952 1.701-6.215a10.03 10.03 0 0 0-2.708-7.084 9 9 0 0 0-6.351-2.899 12 12 0 0 0-.663-.017 11.15 11.15 0 0 0-6.146 1.805 13.8 13.8 0 0 0-4.514 4.722 12.2 12.2 0 0 0-1.701 6.25 10.8 10.8 0 0 0 .643 3.786 9.7 9.7 0 0 0 2.1 3.332 9.14 9.14 0 0 0 6.585 2.876 12 12 0 0 0 .394.006Zm144.445 0a11.1 11.1 0 0 0 6.18-1.805 13.8 13.8 0 0 0 4.479-4.757q1.702-2.952 1.702-6.215a10.03 10.03 0 0 0-2.709-7.084 9 9 0 0 0-6.351-2.899 12 12 0 0 0-.663-.017 11.15 11.15 0 0 0-6.145 1.805 13.8 13.8 0 0 0-4.514 4.722 12.2 12.2 0 0 0-1.702 6.25 10.8 10.8 0 0 0 .644 3.786 9.7 9.7 0 0 0 2.099 3.332 9.14 9.14 0 0 0 6.586 2.876 12 12 0 0 0 .394.006Zm93.055 0a11.1 11.1 0 0 0 6.181-1.805 13.8 13.8 0 0 0 4.479-4.757q1.701-2.952 1.701-6.215a10.03 10.03 0 0 0-2.708-7.084 9 9 0 0 0-6.351-2.899 12 12 0 0 0-.663-.017 11.15 11.15 0 0 0-6.146 1.805 13.8 13.8 0 0 0-4.514 4.722 12.2 12.2 0 0 0-1.701 6.25 10.8 10.8 0 0 0 .643 3.786 9.7 9.7 0 0 0 2.1 3.332 9.14 9.14 0 0 0 6.585 2.876 12 12 0 0 0 .394.006ZM25 15.834l-5.208 20.764h7.916a13.7 13.7 0 0 0 4.131-.606 12.2 12.2 0 0 0 2.362-1.026 12.7 12.7 0 0 0 4.584-4.34 10.77 10.77 0 0 0 1.701-5.834 8.9 8.9 0 0 0-.652-3.449 8.35 8.35 0 0 0-2.126-2.974 9.35 9.35 0 0 0-4.169-2.163q-1.523-.372-3.331-.372zm259.236 3.958q-2.361 0-4.028-1.597a5.34 5.34 0 0 1-1.655-3.693 7 7 0 0 1-.011-.404 6.8 6.8 0 0 1 1.796-4.619 9 9 0 0 1 .391-.416 7.8 7.8 0 0 1 2.079-1.514 6.64 6.64 0 0 1 2.956-.673 6 6 0 0 1 2.167.383 5.4 5.4 0 0 1 1.895 1.249 5.5 5.5 0 0 1 1.632 3.977v.085a6.8 6.8 0 0 1-1.796 4.619 9 9 0 0 1-.391.416 7.8 7.8 0 0 1-2.079 1.514 6.64 6.64 0 0 1-2.956.673Z" font-size="12" style="stroke:#454545;stroke-width:.25mm;fill:#8c1e4d" vector-effect="non-scaling-stroke"/></svg>